<?xml version="1.0" encoding="utf-8"?>
<!-- Generator: Adobe Illustrator 17.1.0, SVG Export Plug-In . SVG Version: 6.00 Build 0)  -->
<!DOCTYPE svg PUBLIC "-//W3C//DTD SVG 1.1//EN" "http://www.w3.org/Graphics/SVG/1.1/DTD/svg11.dtd">
<svg version="1.1" id="Layer_1" xmlns="http://www.w3.org/2000/svg" xmlns:xlink="http://www.w3.org/1999/xlink" x="0px" y="0px"
	 viewBox="0 154.4 432 93.2" enable-background="new 0 154.4 432 93.2" xml:space="preserve">
<path fill="#FFFFFF" d="M51.1,176.5v8.2c-2.4-1.3-5-2.2-7.6-2.8c-2.6-0.6-5.4-0.9-8.2-0.9c-4.3,0-7.5,0.7-9.7,2
	c-2.1,1.3-3.2,3.3-3.2,5.9c0,2,0.8,3.6,2.3,4.7c1.5,1.1,4.6,2.2,9.3,3.3l3,0.7c6.1,1.3,10.5,3.2,13.1,5.6c2.6,2.4,3.9,5.7,3.9,10
	c0,4.9-1.9,8.8-5.8,11.6c-3.9,2.9-9.2,4.3-16,4.3c-2.8,0-5.8-0.3-8.8-0.8c-3.1-0.5-6.3-1.4-9.7-2.5v-8.9c3.2,1.7,6.3,2.9,9.4,3.7
	c3.1,0.8,6.2,1.2,9.2,1.2c4.1,0,7.2-0.7,9.4-2.1c2.2-1.4,3.3-3.4,3.3-5.9c0-2.4-0.8-4.2-2.4-5.4c-1.6-1.3-5.1-2.5-10.4-3.6l-3-0.7
	c-5.4-1.1-9.2-2.9-11.6-5.2c-2.4-2.3-3.6-5.5-3.6-9.6c0-5,1.8-8.8,5.3-11.5c3.5-2.7,8.5-4,14.9-4c3.2,0,6.2,0.2,9,0.7
	C46.1,174.9,48.7,175.6,51.1,176.5z"/>
<path fill="#FFFFFF" d="M107.9,199.1v4.2H68.2c0.4,6,2.2,10.5,5.4,13.6c3.2,3.1,7.7,4.7,13.4,4.7c3.3,0,6.5-0.4,9.7-1.2
	c3.1-0.8,6.2-2,9.3-3.7v8.2c-3.1,1.3-6.3,2.3-9.5,3c-3.3,0.7-6.6,1-9.9,1c-8.4,0-15-2.4-20-7.3c-4.9-4.9-7.4-11.5-7.4-19.8
	c0-8.6,2.3-15.5,7-20.5c4.7-5.1,10.9-7.6,18.8-7.6c7.1,0,12.7,2.3,16.8,6.8C105.9,185.1,107.9,191.3,107.9,199.1z M99.3,196.6
	c-0.1-4.7-1.4-8.5-4-11.3c-2.6-2.8-6-4.2-10.3-4.2c-4.8,0-8.7,1.4-11.6,4.1c-2.9,2.7-4.6,6.6-5,11.5L99.3,196.6z"/>
<path fill="#FFFFFF" d="M155.2,177v8.1c-2.4-1.3-4.9-2.4-7.4-3c-2.5-0.7-4.9-1-7.5-1c-5.6,0-10,1.8-13.1,5.3
	c-3.1,3.6-4.7,8.5-4.7,15c0,6.4,1.6,11.4,4.7,15c3.1,3.6,7.5,5.3,13.1,5.3c2.5,0,5-0.3,7.5-1c2.5-0.7,4.9-1.7,7.4-3v8
	c-2.4,1.1-4.9,2-7.5,2.5c-2.6,0.6-5.3,0.8-8.2,0.8c-7.9,0-14.2-2.5-18.9-7.5c-4.7-5-7-11.7-7-20.2c0-8.6,2.4-15.3,7.1-20.3
	c4.7-4.9,11.2-7.4,19.4-7.4c2.7,0,5.3,0.3,7.8,0.8C150.4,175.1,152.8,175.9,155.2,177z"/>
<path fill="#45BCFA" d="M164.5,206.8V175h8.6v31.5c0,5,1,8.7,2.9,11.2c1.9,2.5,4.9,3.7,8.7,3.7c4.7,0,8.4-1.5,11.1-4.5
	c2.7-3,4.1-7,4.1-12.2V175h8.6v52.6H200v-8.1c-2.1,3.2-4.5,5.6-7.3,7.1c-2.8,1.6-6,2.3-9.7,2.3c-6,0-10.6-1.9-13.8-5.6
	C166.1,219.6,164.5,214.1,164.5,206.8z"/>
<path fill="#45BCFA" d="M252.1,183.1c-1-0.6-2-1-3.2-1.2c-1.1-0.3-2.4-0.4-3.8-0.4c-4.9,0-8.6,1.6-11.3,4.8
	c-2.6,3.2-3.9,7.7-3.9,13.7v27.7h-8.7V175h8.7v8.2c1.8-3.2,4.2-5.6,7.1-7.1c2.9-1.6,6.5-2.3,10.6-2.3c0.6,0,1.3,0,2,0.1
	c0.7,0.1,1.5,0.2,2.4,0.4L252.1,183.1z"/>
<path fill="#45BCFA" d="M256.4,154.5h8.6v73.1h-8.6V154.5z"/>
<path fill="#FFFFFF" d="M300.2,232.5c-2.4,6.3-4.8,10.4-7.1,12.3c-2.3,1.9-5.4,2.9-9.3,2.9h-6.9v-7.2h5.1c2.4,0,4.2-0.6,5.5-1.7
	c1.3-1.1,2.8-3.8,4.4-8l1.6-3.9L272.1,175h9.2l16.5,41.2l16.5-41.2h9.2L300.2,232.5z"/>
<g>
	<path fill="#E6E6E6" d="M336.7,188.5c1.7,0,3.2,0.6,4.4,1.9c1.2,1.3,1.9,2.8,1.9,4.5c0,1.8-0.6,3.3-1.9,4.5
		c-1.2,1.2-2.7,1.9-4.5,1.9s-3.3-0.6-4.5-1.9c-1.2-1.2-1.9-2.7-1.9-4.5c0-1.8,0.6-3.3,1.9-4.5C333.3,189.1,334.9,188.5,336.7,188.5z
		 M336.7,211.9c1.7,0,3.2,0.6,4.4,1.9c1.2,1.3,1.9,2.8,1.9,4.5c0,1.8-0.6,3.3-1.9,4.5c-1.2,1.2-2.7,1.9-4.5,1.9s-3.3-0.6-4.5-1.9
		c-1.2-1.2-1.9-2.7-1.9-4.5c0-1.8,0.6-3.3,1.9-4.5C333.3,212.5,334.8,211.9,336.7,211.9z"/>
	<path fill="#E6E6E6" d="M375.8,154.4h7.1l-28.7,74.4h-7.2L375.8,154.4z"/>
	<path fill="#E6E6E6" d="M413.8,154.4h7.1l-28.7,74.4H385L413.8,154.4z"/>
</g>
</svg>
